{
  "accessors": [
    {
      "bufferView": 1,
      "componentType": 5126,
      "count": 176,
      "max": [
        1.5769070386886597,
        7.7012038230896,
        2.0111889839172363
      ],
      "min": [
        -1.5769070386886597,
        -7.7012038230896,
        -0.002280999906361103
      ],
      "type": "VEC3"
    },
    {
      "bufferView": 1,
      "byteOffset": 2112,
      "componentType": 5126,
      "count": 176,
      "max": [
        0.9951865673065186,
        0.9951865673065186,
        1.0
      ],
      "min": [
        -0.9951865673065186,
        -0.9951865673065186,
        -1.0
      ],
      "type": "VEC3"
    },
    {
      "bufferView": 0,
      "componentType": 5125,
      "count": 336,
      "type": "SCALAR"
    },
    {
      "bufferView": 1,
      "byteOffset": 4224,
      "componentType": 5126,
      "count": 16896,
      "max": [
        12.79554557800293,
        12.79554557800293,
        6.625415802001953
      ],
      "min": [
        -12.79554557800293,
        -12.795546531677246,
        5.829928874969482
      ],
      "type": "VEC3"
    },
    {
      "bufferView": 1,
      "byteOffset": 206976,
      "componentType": 5126,
      "count": 16896,
      "max": [
        0.33759403228759766,
        0.33759403228759766,
        0.9999998807907104
      ],
      "min": [
        -0.33759403228759766,
        -0.33750542998313904,
        0.940839946269989
      ],
      "type": "VEC3"
    },
    {
      "bufferView": 0,
      "byteOffset": 1344,
      "componentType": 5125,
      "count": 98304,
      "type": "SCALAR"
    },
    {
      "bufferView": 1,
      "byteOffset": 409728,
      "componentType": 5126,
      "count": 9679,
      "max": [
        12.062640190124512,
        2.331897020339966,
        0.685135006904602
      ],
      "min": [
        -12.039527893066406,
        -0.9557409882545471,
        -0.0012779999524354935
      ],
      "type": "VEC3"
    },
    {
      "bufferView": 1,
      "byteOffset": 525876,
      "componentType": 5126,
      "count": 9679,
      "max": [
        0.9964401721954346,
        0.9964267015457153,
        1.0
      ],
      "min": [
        -0.9964401721954346,
        -0.9964401721954346,
        -1.0
      ],
      "type": "VEC3"
    },
    {
      "bufferView": 0,
      "byteOffset": 394560,
      "componentType": 5125,
      "count": 17940,
      "type": "SCALAR"
    },
    {
      "bufferView": 1,
      "byteOffset": 642024,
      "componentType": 5126,
      "count": 7708,
      "max": [
        -11.5364990234375,
        0.030362000688910484,
        0.685135006904602
      ],
      "min": [
        -11.994413375854492,
        -2.3318979740142822,
        -0.0012779999524354935
      ],
      "type": "VEC3"
    },
    {
      "bufferView": 1,
      "byteOffset": 734520,
      "componentType": 5126,
      "count": 7708,
      "max": [
        0.9964401721954346,
        0.9964401721954346,
        1.0
      ],
      "min": [
        -0.9964401721954346,
        -0.9964267015457153,
        -1.0
      ],
      "type": "VEC3"
    },
    {
      "bufferView": 0,
      "byteOffset": 466320,
      "componentType": 5125,
      "count": 14580,
      "type": "SCALAR"
    },
    {
      "bufferView": 1,
      "byteOffset": 827016,
      "componentType": 5126,
      "count": 9086,
      "max": [
        18.933116912841797,
        18.933116912841797,
        1.0110310316085815
      ],
      "min": [
        -18.933116912841797,
        -18.933116912841797,
        -0.001276999944821
      ],
      "type": "VEC3"
    },
    {
      "bufferView": 1,
      "byteOffset": 936048,
      "componentType": 5126,
      "count": 9086,
      "max": [
        0.9569688439369202,
        0.9569688439369202,
        1.0
      ],
      "min": [
        -0.9569688439369202,
        -0.9569688439369202,
        -1.0
      ],
      "type": "VEC3"
    },
    {
      "bufferView": 0,
      "byteOffset": 524640,
      "componentType": 5125,
      "count": 16530,
      "type": "SCALAR"
    },
    {
      "bufferView": 1,
      "byteOffset": 1045080,
      "componentType": 5126,
      "count": 11828,
      "max": [
        12.80265998840332,
        12.804673194885254,
        6.620736122131348
      ],
      "min": [
        -12.80265998840332,
        -12.800646781921387,
        -0.03585999831557274
      ],
      "type": "VEC3"
    },
    {
      "bufferView": 1,
      "byteOffset": 1187016,
      "componentType": 5126,
      "count": 11828,
      "max": [
        1.0,
        1.0,
        1.0
      ],
      "min": [
        -1.0,
        -1.0,
        -1.0
      ],
      "type": "VEC3"
    },
    {
      "bufferView": 0,
      "byteOffset": 590760,
      "componentType": 5125,
      "count": 20895,
      "type": "SCALAR"
    }
  ],
  "asset": {
    "extras": {
      "author": "3D Arena (https://sketchfab.com/Jamesaalam)",
      "license": "CC-BY-4.0 (http://creativecommons.org/licenses/by/4.0/)",
      "source": "https://sketchfab.com/3d-models/battle-arena-ac1432c2970045a0a0e92a10b288fe5b",
      "title": "battle arena"
    },
    "generator": "Sketchfab-15.20.0",
    "version": "2.0"
  },
  "bufferViews": [
    {
      "buffer": 0,
      "byteLength": 674340,
      "name": "floatBufferViews",
      "target": 34963
    },
    {
      "buffer": 0,
      "byteLength": 1328952,
      "byteOffset": 674340,
      "byteStride": 12,
      "name": "floatBufferViews",
      "target": 34962
    }
  ],
  "buffers": [
    {
      "byteLength": 2003292,
      "uri": "scene.bin"
    }
  ],
  "materials": [
    {
      "doubleSided": true,
      "name": "None",
      "pbrMetallicRoughness": {
        "metallicFactor": 0.0,
        "roughnessFactor": 0.6
      }
    }
  ],
  "meshes": [
    {
      "name": "Object_0",
      "primitives": [
        {
          "attributes": {
            "NORMAL": 1,
            "POSITION": 0
          },
          "indices": 2,
          "material": 0,
          "mode": 4
        }
      ]
    },
    {
      "name": "Object_1",
      "primitives": [
        {
          "attributes": {
            "NORMAL": 4,
            "POSITION": 3
          },
          "indices": 5,
          "material": 0,
          "mode": 4
        }
      ]
    },
    {
      "name": "Object_2",
      "primitives": [
        {
          "attributes": {
            "NORMAL": 7,
            "POSITION": 6
          },
          "indices": 8,
          "material": 0,
          "mode": 4
        }
      ]
    },
    {
      "name": "Object_3",
      "primitives": [
        {
          "attributes": {
            "NORMAL": 10,
            "POSITION": 9
          },
          "indices": 11,
          "material": 0,
          "mode": 4
        }
      ]
    },
    {
      "name": "Object_4",
      "primitives": [
        {
          "attributes": {
            "NORMAL": 13,
            "POSITION": 12
          },
          "indices": 14,
          "material": 0,
          "mode": 4
        }
      ]
    },
    {
      "name": "Object_5",
      "primitives": [
        {
          "attributes": {
            "NORMAL": 16,
            "POSITION": 15
          },
          "indices": 17,
          "material": 0,
          "mode": 4
        }
      ]
    }
  ],
  "nodes": [
    {
      "children": [
        1
      ],
      "matrix": [
        1.0,
        0.0,
        0.0,
        0.0,
        0.0,
        2.220446049250313e-16,
        -1.0,
        0.0,
        0.0,
        1.0,
        2.220446049250313e-16,
        0.0,
        0.0,
        0.0,
        0.0,
        1.0
      ],
      "name": "Sketchfab_model"
    },
    {
      "children": [
        2,
        3,
        4,
        5,
        6,
        7
      ],
      "name": "battle arena.obj.cleaner.materialmerger.gles"
    },
    {
      "mesh": 0,
      "name": "Object_2"
    },
    {
      "mesh": 1,
      "name": "Object_3"
    },
    {
      "mesh": 2,
      "name": "Object_4"
    },
    {
      "mesh": 3,
      "name": "Object_5"
    },
    {
      "mesh": 4,
      "name": "Object_6"
    },
    {
      "mesh": 5,
      "name": "Object_7"
    }
  ],
  "scene": 0,
  "scenes": [
    {
      "name": "Sketchfab_Scene",
      "nodes": [
        0
      ]
    }
  ]
}
