{
  "accessors": [
    {
      "bufferView": 2,
      "componentType": 5126,
      "count": 561,
      "max": [
        25.92644691467285,
        1.7379742860794067,
        25.92644691467285
      ],
      "min": [
        -25.92644691467285,
        -6.649117946624756,
        -25.92644691467285
      ],
      "type": "VEC3"
    },
    {
      "bufferView": 2,
      "byteOffset": 6732,
      "componentType": 5126,
      "count": 561,
      "max": [
        1.0,
        1.0,
        1.0
      ],
      "min": [
        -1.0,
        0.0,
        -1.0
      ],
      "type": "VEC3"
    },
    {
      "bufferView": 1,
      "componentType": 5126,
      "count": 561,
      "max": [
        1.0,
        0.7447967529296875
      ],
      "min": [
        0.0,
        0.0
      ],
      "type": "VEC2"
    },
    {
      "bufferView": 0,
      "componentType": 5125,
      "count": 2304,
      "type": "SCALAR"
    },
    {
      "bufferView": 2,
      "byteOffset": 13464,
      "componentType": 5126,
      "count": 720,
      "max": [
        14.011513710021973,
        10.406341552734375,
        14.011514663696289
      ],
      "min": [
        -13.958780288696289,
        0.07184123992919922,
        -13.958780288696289
      ],
      "type": "VEC3"
    },
    {
      "bufferView": 2,
      "byteOffset": 22104,
      "componentType": 5126,
      "count": 720,
      "max": [
        0.9914155602455139,
        0.9715293049812317,
        0.9914155602455139
      ],
      "min": [
        -0.9914155602455139,
        -0.9715291261672974,
        -0.9914155602455139
      ],
      "type": "VEC3"
    },
    {
      "bufferView": 1,
      "byteOffset": 4488,
      "componentType": 5126,
      "count": 720,
      "max": [
        0.39391016960144043,
        0.9871633052825928
      ],
      "min": [
        0.013625860214233398,
        0.6517660617828369
      ],
      "type": "VEC2"
    },
    {
      "bufferView": 0,
      "byteOffset": 9216,
      "componentType": 5125,
      "count": 1920,
      "type": "SCALAR"
    },
    {
      "bufferView": 2,
      "byteOffset": 30744,
      "componentType": 5126,
      "count": 348,
      "max": [
        25.92644500732422,
        10.34212589263916,
        25.704633712768555
      ],
      "min": [
        -25.704633712768555,
        1.6100544929504395,
        -25.92644500732422
      ],
      "type": "VEC3"
    },
    {
      "bufferView": 2,
      "byteOffset": 34920,
      "componentType": 5126,
      "count": 348,
      "max": [
        0.9968098402023315,
        0.5117465257644653,
        0.9972755312919617
      ],
      "min": [
        -0.9972754120826721,
        -1.0,
        -0.9968101978302002
      ],
      "type": "VEC3"
    },
    {
      "bufferView": 1,
      "byteOffset": 10248,
      "componentType": 5126,
      "count": 348,
      "max": [
        0.951906681060791,
        0.5859881043434143
      ],
      "min": [
        0.00978543795645237,
        0.010382473468780518
      ],
      "type": "VEC2"
    },
    {
      "bufferView": 0,
      "byteOffset": 16896,
      "componentType": 5125,
      "count": 666,
      "type": "SCALAR"
    },
    {
      "bufferView": 2,
      "byteOffset": 39096,
      "componentType": 5126,
      "count": 251,
      "max": [
        50.85982894897461,
        50.85982894897461,
        50.859832763671875
      ],
      "min": [
        -50.859840393066406,
        -7.956225395202637,
        -50.8598518371582
      ],
      "type": "VEC3"
    },
    {
      "bufferView": 2,
      "byteOffset": 42108,
      "componentType": 5126,
      "count": 251,
      "max": [
        1.0,
        0.07845965027809143,
        1.0
      ],
      "min": [
        -1.0,
        -1.0,
        -1.0
      ],
      "type": "VEC3"
    },
    {
      "bufferView": 1,
      "byteOffset": 13032,
      "componentType": 5126,
      "count": 251,
      "max": [
        1.0000001192092896,
        1.0
      ],
      "min": [
        0.0,
        0.4500000476837158
      ],
      "type": "VEC2"
    },
    {
      "bufferView": 0,
      "byteOffset": 19560,
      "componentType": 5125,
      "count": 1260,
      "type": "SCALAR"
    }
  ],
  "asset": {
    "extras": {
      "author": "Umar (https://sketchfab.com/123umar123)",
      "license": "SKETCHFAB Standard (https://sketchfab.com/licenses)",
      "source": "https://sketchfab.com/3d-models/low-poly-sci-fi-fighting-stage-14cfdd4537dc4192ab82ac5a1e920949",
      "title": "Low Poly Sci-fi Fighting Stage"
    },
    "generator": "Sketchfab-16.74.0",
    "version": "2.0"
  },
  "bufferViews": [
    {
      "buffer": 0,
      "byteLength": 24600,
      "name": "floatBufferViews",
      "target": 34963
    },
    {
      "buffer": 0,
      "byteLength": 15040,
      "byteOffset": 24600,
      "byteStride": 8,
      "name": "floatBufferViews",
      "target": 34962
    },
    {
      "buffer": 0,
      "byteLength": 45120,
      "byteOffset": 39640,
      "byteStride": 12,
      "name": "floatBufferViews",
      "target": 34962
    }
  ],
  "buffers": [
    {
      "byteLength": 84760,
      "uri": "scene.bin"
    }
  ],
  "extensionsUsed": [
    "KHR_materials_emissive_strength"
  ],
  "images": [
    {
      "uri": "textures/Base_baseColor.png"
    },
    {
      "uri": "textures/Base_metallicRoughness.png"
    },
    {
      "uri": "textures/Base_emissive.png"
    },
    {
      "uri": "textures/Lights2_baseColor.png"
    },
    {
      "uri": "textures/Lights2_emissive.png"
    },
    {
      "uri": "textures/outer_baseColor.png"
    }
  ],
  "materials": [
    {
      "doubleSided": true,
      "emissiveFactor": [
        1.0,
        1.0,
        1.0
      ],
      "emissiveTexture": {
        "index": 2
      },
      "name": "Base",
      "pbrMetallicRoughness": {
        "baseColorTexture": {
          "index": 0
        },
        "metallicFactor": 0.0,
        "metallicRoughnessTexture": {
          "index": 1
        }
      }
    },
    {
      "doubleSided": true,
      "emissiveFactor": [
        1.0,
        1.0,
        1.0
      ],
      "emissiveTexture": {
        "index": 4
      },
      "name": "Lights2",
      "pbrMetallicRoughness": {
        "baseColorTexture": {
          "index": 3
        },
        "metallicFactor": 0.0,
        "roughnessFactor": 0.6
      }
    },
    {
      "doubleSided": true,
      "emissiveFactor": [
        1.0,
        1.0,
        1.0
      ],
      "emissiveTexture": {
        "index": 5
      },
      "extensions": {
        "KHR_materials_emissive_strength": {
          "emissiveStrength": 2.6710453620800862
        }
      },
      "name": "outer",
      "pbrMetallicRoughness": {
        "baseColorTexture": {
          "index": 5
        },
        "metallicFactor": 0.0,
        "roughnessFactor": 0.6
      }
    }
  ],
  "meshes": [
    {
      "name": "Ground_Base_0",
      "primitives": [
        {
          "attributes": {
            "NORMAL": 1,
            "POSITION": 0,
            "TEXCOORD_0": 2
          },
          "indices": 3,
          "material": 0,
          "mode": 4
        }
      ]
    },
    {
      "name": "Lights_group2_pCylinder2_Lights2_0",
      "primitives": [
        {
          "attributes": {
            "NORMAL": 5,
            "POSITION": 4,
            "TEXCOORD_0": 6
          },
          "indices": 7,
          "material": 1,
          "mode": 4
        }
      ]
    },
    {
      "name": "Spot_Lights2_0",
      "primitives": [
        {
          "attributes": {
            "NORMAL": 9,
            "POSITION": 8,
            "TEXCOORD_0": 10
          },
          "indices": 11,
          "material": 1,
          "mode": 4
        }
      ]
    },
    {
      "name": "AS_outer_0",
      "primitives": [
        {
          "attributes": {
            "NORMAL": 13,
            "POSITION": 12,
            "TEXCOORD_0": 14
          },
          "indices": 15,
          "material": 2,
          "mode": 4
        }
      ]
    }
  ],
  "nodes": [
    {
      "children": [
        1
      ],
      "matrix": [
        1.0,
        0.0,
        0.0,
        0.0,
        0.0,
        2.220446049250313e-16,
        -1.0,
        0.0,
        0.0,
        1.0,
        2.220446049250313e-16,
        0.0,
        0.0,
        0.0,
        0.0,
        1.0
      ],
      "name": "Sketchfab_model"
    },
    {
      "children": [
        2
      ],
      "matrix": [
        0.009999999776482582,
        0.0,
        0.0,
        0.0,
        0.0,
        0.0,
        0.009999999776482582,
        0.0,
        0.0,
        -0.009999999776482582,
        0.0,
        0.0,
        0.0,
        0.0,
        0.0,
        1.0
      ],
      "name": "250ff99b3bd84c24b4a6557a417154b5.fbx"
    },
    {
      "children": [
        3
      ],
      "name": "RootNode"
    },
    {
      "children": [
        4,
        6,
        8,
        10
      ],
      "name": "FightArena"
    },
    {
      "children": [
        5
      ],
      "name": "Ground"
    },
    {
      "mesh": 0,
      "name": "Ground_Base_0"
    },
    {
      "children": [
        7
      ],
      "name": "Lights_group2_pCylinder2"
    },
    {
      "mesh": 1,
      "name": "Lights_group2_pCylinder2_Lights2_0"
    },
    {
      "children": [
        9
      ],
      "name": "Spot"
    },
    {
      "mesh": 2,
      "name": "Spot_Lights2_0"
    },
    {
      "children": [
        11
      ],
      "name": "AS"
    },
    {
      "mesh": 3,
      "name": "AS_outer_0"
    }
  ],
  "samplers": [
    {
      "magFilter": 9729,
      "minFilter": 9987,
      "wrapS": 10497,
      "wrapT": 10497
    }
  ],
  "scene": 0,
  "scenes": [
    {
      "name": "Sketchfab_Scene",
      "nodes": [
        0
      ]
    }
  ],
  "textures": [
    {
      "sampler": 0,
      "source": 0
    },
    {
      "sampler": 0,
      "source": 1
    },
    {
      "sampler": 0,
      "source": 2
    },
    {
      "sampler": 0,
      "source": 3
    },
    {
      "sampler": 0,
      "source": 4
    },
    {
      "sampler": 0,
      "source": 5
    }
  ]
}
